<mxfile host="app.diagrams.net" agent="Mozilla/5.0 (Macintosh; Intel Mac OS X 10_15_7) AppleWebKit/537.36 (KHTML, like Gecko) Chrome/134.0.0.0 Safari/537.36" version="26.2.3">
  <diagram id="C5RBs43oDa-KdzZeNtuy" name="Page-1">
    <mxGraphModel grid="1" page="1" gridSize="10" guides="1" tooltips="1" connect="1" arrows="1" fold="1" pageScale="1" pageWidth="827" pageHeight="1169" math="0" shadow="0">
      <root>
        <mxCell id="WIyWlLk6GJQsqaUBKTNV-0" />
        <mxCell id="WIyWlLk6GJQsqaUBKTNV-1" parent="WIyWlLk6GJQsqaUBKTNV-0" />
        <mxCell id="WKeKa3uL8pxt96cC4who-8" style="edgeStyle=orthogonalEdgeStyle;rounded=0;orthogonalLoop=1;jettySize=auto;html=1;exitX=1;exitY=0.25;exitDx=0;exitDy=0;entryX=0;entryY=0.5;entryDx=0;entryDy=0;" edge="1" parent="WIyWlLk6GJQsqaUBKTNV-1" source="WKeKa3uL8pxt96cC4who-0" target="WKeKa3uL8pxt96cC4who-2">
          <mxGeometry relative="1" as="geometry" />
        </mxCell>
        <mxCell id="WKeKa3uL8pxt96cC4who-11" style="edgeStyle=orthogonalEdgeStyle;rounded=0;orthogonalLoop=1;jettySize=auto;html=1;exitX=1;exitY=1;exitDx=0;exitDy=0;entryX=0;entryY=0.5;entryDx=0;entryDy=0;" edge="1" parent="WIyWlLk6GJQsqaUBKTNV-1" source="WKeKa3uL8pxt96cC4who-0" target="WKeKa3uL8pxt96cC4who-10">
          <mxGeometry relative="1" as="geometry" />
        </mxCell>
        <mxCell id="WKeKa3uL8pxt96cC4who-14" style="edgeStyle=orthogonalEdgeStyle;rounded=0;orthogonalLoop=1;jettySize=auto;html=1;exitX=0.5;exitY=1;exitDx=0;exitDy=0;entryX=0;entryY=0.5;entryDx=0;entryDy=0;" edge="1" parent="WIyWlLk6GJQsqaUBKTNV-1" source="WKeKa3uL8pxt96cC4who-0" target="WKeKa3uL8pxt96cC4who-13">
          <mxGeometry relative="1" as="geometry" />
        </mxCell>
        <mxCell id="WKeKa3uL8pxt96cC4who-21" style="edgeStyle=orthogonalEdgeStyle;rounded=0;orthogonalLoop=1;jettySize=auto;html=1;exitX=0;exitY=1;exitDx=0;exitDy=0;entryX=0;entryY=0.5;entryDx=0;entryDy=0;" edge="1" parent="WIyWlLk6GJQsqaUBKTNV-1" source="WKeKa3uL8pxt96cC4who-0" target="WKeKa3uL8pxt96cC4who-20">
          <mxGeometry relative="1" as="geometry" />
        </mxCell>
        <mxCell id="WKeKa3uL8pxt96cC4who-23" style="edgeStyle=orthogonalEdgeStyle;rounded=0;orthogonalLoop=1;jettySize=auto;html=1;exitX=0;exitY=0.5;exitDx=0;exitDy=0;entryX=0;entryY=0.5;entryDx=0;entryDy=0;" edge="1" parent="WIyWlLk6GJQsqaUBKTNV-1" source="WKeKa3uL8pxt96cC4who-0" target="WKeKa3uL8pxt96cC4who-22">
          <mxGeometry relative="1" as="geometry" />
        </mxCell>
        <mxCell id="WKeKa3uL8pxt96cC4who-0" value="clean data" style="rounded=0;whiteSpace=wrap;html=1;" vertex="1" parent="WIyWlLk6GJQsqaUBKTNV-1">
          <mxGeometry x="120" y="50" width="110" height="60" as="geometry" />
        </mxCell>
        <mxCell id="WKeKa3uL8pxt96cC4who-2" value="onehot encode" style="rhombus;whiteSpace=wrap;html=1;" vertex="1" parent="WIyWlLk6GJQsqaUBKTNV-1">
          <mxGeometry x="340" y="20" width="80" height="80" as="geometry" />
        </mxCell>
        <mxCell id="WKeKa3uL8pxt96cC4who-3" value="List columns need to encoded" style="swimlane;fontStyle=0;childLayout=stackLayout;horizontal=1;startSize=30;horizontalStack=0;resizeParent=1;resizeParentMax=0;resizeLast=0;collapsible=1;marginBottom=0;whiteSpace=wrap;html=1;" collapsed="1" vertex="1" parent="WIyWlLk6GJQsqaUBKTNV-1">
          <mxGeometry x="590" y="20" width="200" height="30" as="geometry">
            <mxRectangle x="470" y="20" width="140" height="120" as="alternateBounds" />
          </mxGeometry>
        </mxCell>
        <mxCell id="WKeKa3uL8pxt96cC4who-4" value="&lt;div style=&quot;color: rgb(59, 59, 59); background-color: rgb(255, 255, 255); font-family: Menlo, Monaco, &amp;quot;Courier New&amp;quot;, monospace; line-height: 18px; white-space: pre;&quot;&gt;&lt;span style=&quot;color: #a31515;&quot;&gt;&#39;positions&#39;&lt;/span&gt;&lt;/div&gt;" style="text;strokeColor=none;fillColor=none;align=left;verticalAlign=middle;spacingLeft=4;spacingRight=4;overflow=hidden;points=[[0,0.5],[1,0.5]];portConstraint=eastwest;rotatable=0;whiteSpace=wrap;html=1;" vertex="1" parent="WKeKa3uL8pxt96cC4who-3">
          <mxGeometry y="30" width="140" height="30" as="geometry" />
        </mxCell>
        <mxCell id="WKeKa3uL8pxt96cC4who-5" value="&lt;div style=&quot;color: rgb(59, 59, 59); background-color: rgb(255, 255, 255); font-family: Menlo, Monaco, &amp;quot;Courier New&amp;quot;, monospace; line-height: 18px; white-space: pre;&quot;&gt;&lt;span style=&quot;color: #a31515;&quot;&gt;&#39;national_team_position&#39;&lt;/span&gt;&lt;/div&gt;" style="text;strokeColor=none;fillColor=none;align=left;verticalAlign=middle;spacingLeft=4;spacingRight=4;overflow=hidden;points=[[0,0.5],[1,0.5]];portConstraint=eastwest;rotatable=0;whiteSpace=wrap;html=1;" vertex="1" parent="WKeKa3uL8pxt96cC4who-3">
          <mxGeometry y="60" width="140" height="30" as="geometry" />
        </mxCell>
        <mxCell id="WKeKa3uL8pxt96cC4who-6" value="&lt;div style=&quot;color: rgb(59, 59, 59); background-color: rgb(255, 255, 255); font-family: Menlo, Monaco, &amp;quot;Courier New&amp;quot;, monospace; line-height: 18px; white-space: pre;&quot;&gt;&lt;span style=&quot;color: #a31515;&quot;&gt;preferred_foot&lt;/span&gt;&lt;/div&gt;" style="text;strokeColor=none;fillColor=none;align=left;verticalAlign=middle;spacingLeft=4;spacingRight=4;overflow=hidden;points=[[0,0.5],[1,0.5]];portConstraint=eastwest;rotatable=0;whiteSpace=wrap;html=1;" vertex="1" parent="WKeKa3uL8pxt96cC4who-3">
          <mxGeometry y="90" width="140" height="30" as="geometry" />
        </mxCell>
        <mxCell id="WKeKa3uL8pxt96cC4who-9" style="edgeStyle=orthogonalEdgeStyle;rounded=0;orthogonalLoop=1;jettySize=auto;html=1;exitX=1;exitY=0.5;exitDx=0;exitDy=0;entryX=0.071;entryY=0.167;entryDx=0;entryDy=0;entryPerimeter=0;" edge="1" parent="WIyWlLk6GJQsqaUBKTNV-1" source="WKeKa3uL8pxt96cC4who-2" target="WKeKa3uL8pxt96cC4who-3">
          <mxGeometry relative="1" as="geometry" />
        </mxCell>
        <mxCell id="WKeKa3uL8pxt96cC4who-10" value="fill null value using mode" style="rhombus;whiteSpace=wrap;html=1;" vertex="1" parent="WIyWlLk6GJQsqaUBKTNV-1">
          <mxGeometry x="320" y="120" width="80" height="80" as="geometry" />
        </mxCell>
        <mxCell id="WKeKa3uL8pxt96cC4who-13" value="&lt;div style=&quot;text-align: left;&quot;&gt;&lt;span style=&quot;background-color: transparent; color: light-dark(rgb(0, 0, 0), rgb(255, 255, 255));&quot;&gt;drop unnecessary&lt;/span&gt;&lt;/div&gt;&lt;div style=&quot;text-align: left;&quot;&gt;&lt;span style=&quot;background-color: transparent; color: light-dark(rgb(0, 0, 0), rgb(255, 255, 255));&quot;&gt;columns&lt;/span&gt;&lt;/div&gt;" style="rhombus;whiteSpace=wrap;html=1;" vertex="1" parent="WIyWlLk6GJQsqaUBKTNV-1">
          <mxGeometry x="400" y="170" width="80" height="80" as="geometry" />
        </mxCell>
        <mxCell id="WKeKa3uL8pxt96cC4who-15" value="List columns need to dropped" style="swimlane;fontStyle=0;childLayout=stackLayout;horizontal=1;startSize=30;horizontalStack=0;resizeParent=1;resizeParentMax=0;resizeLast=0;collapsible=1;marginBottom=0;whiteSpace=wrap;html=1;" collapsed="1" vertex="1" parent="WIyWlLk6GJQsqaUBKTNV-1">
          <mxGeometry x="620" y="170" width="60" height="30" as="geometry">
            <mxRectangle x="620" y="170" width="170" height="60" as="alternateBounds" />
          </mxGeometry>
        </mxCell>
        <mxCell id="WKeKa3uL8pxt96cC4who-16" value="&lt;div style=&quot;color: rgb(59, 59, 59); background-color: rgb(255, 255, 255); font-family: Menlo, Monaco, &amp;quot;Courier New&amp;quot;, monospace; line-height: 18px; white-space: pre;&quot;&gt;[&lt;span style=&quot;color: rgb(163, 21, 21);&quot;&gt;&#39;birth_date&#39;&lt;/span&gt;,&lt;/div&gt;&lt;div style=&quot;color: rgb(59, 59, 59); background-color: rgb(255, 255, 255); font-family: Menlo, Monaco, &amp;quot;Courier New&amp;quot;, monospace; line-height: 18px; white-space: pre;&quot;&gt;&lt;span style=&quot;color: rgb(163, 21, 21);&quot;&gt;&#39;nationality&#39;&lt;/span&gt;,&lt;/div&gt;&lt;div style=&quot;color: rgb(59, 59, 59); background-color: rgb(255, 255, 255); font-family: Menlo, Monaco, &amp;quot;Courier New&amp;quot;, monospace; line-height: 18px; white-space: pre;&quot;&gt;&lt;span style=&quot;color: rgb(163, 21, 21);&quot;&gt;&#39;wage_euro&#39;&lt;/span&gt;,&lt;/div&gt;&lt;div style=&quot;color: rgb(59, 59, 59); background-color: rgb(255, 255, 255); font-family: Menlo, Monaco, &amp;quot;Courier New&amp;quot;, monospace; line-height: 18px; white-space: pre;&quot;&gt;&lt;span style=&quot;color: rgb(163, 21, 21);&quot;&gt;&#39;value_euro&#39;&lt;/span&gt;,&lt;/div&gt;&lt;div style=&quot;color: rgb(59, 59, 59); background-color: rgb(255, 255, 255); font-family: Menlo, Monaco, &amp;quot;Courier New&amp;quot;, monospace; line-height: 18px; white-space: pre;&quot;&gt;&lt;span style=&quot;color: rgb(163, 21, 21);&quot;&gt;&#39;body_type&#39;&lt;/span&gt;,&lt;/div&gt;&lt;div style=&quot;color: rgb(59, 59, 59); background-color: rgb(255, 255, 255); font-family: Menlo, Monaco, &amp;quot;Courier New&amp;quot;, monospace; line-height: 18px; white-space: pre;&quot;&gt;&lt;span style=&quot;color: rgb(163, 21, 21);&quot;&gt;&#39;release_clause_euro&#39;&lt;/span&gt;,&lt;/div&gt;&lt;div style=&quot;color: rgb(59, 59, 59); background-color: rgb(255, 255, 255); font-family: Menlo, Monaco, &amp;quot;Courier New&amp;quot;, monospace; line-height: 18px; white-space: pre;&quot;&gt;&lt;span style=&quot;color: rgb(163, 21, 21);&quot;&gt;&#39;national_team&#39;&lt;/span&gt;,&lt;/div&gt;&lt;div style=&quot;color: rgb(59, 59, 59); background-color: rgb(255, 255, 255); font-family: Menlo, Monaco, &amp;quot;Courier New&amp;quot;, monospace; line-height: 18px; white-space: pre;&quot;&gt;&lt;span style=&quot;color: rgb(163, 21, 21);&quot;&gt;&#39;national_jersey_number&#39;&lt;/span&gt;&lt;/div&gt;" style="text;strokeColor=none;fillColor=none;align=left;verticalAlign=middle;spacingLeft=4;spacingRight=4;overflow=hidden;points=[[0,0.5],[1,0.5]];portConstraint=eastwest;rotatable=0;whiteSpace=wrap;html=1;" vertex="1" parent="WKeKa3uL8pxt96cC4who-15">
          <mxGeometry y="30" width="170" height="30" as="geometry" />
        </mxCell>
        <mxCell id="WKeKa3uL8pxt96cC4who-19" style="edgeStyle=orthogonalEdgeStyle;rounded=0;orthogonalLoop=1;jettySize=auto;html=1;exitX=1;exitY=0.5;exitDx=0;exitDy=0;entryX=0.032;entryY=0.067;entryDx=0;entryDy=0;entryPerimeter=0;" edge="1" parent="WIyWlLk6GJQsqaUBKTNV-1" source="WKeKa3uL8pxt96cC4who-13" target="WKeKa3uL8pxt96cC4who-16">
          <mxGeometry relative="1" as="geometry" />
        </mxCell>
        <mxCell id="WKeKa3uL8pxt96cC4who-20" value="standard scaler" style="rhombus;whiteSpace=wrap;html=1;" vertex="1" parent="WIyWlLk6GJQsqaUBKTNV-1">
          <mxGeometry x="430" y="60" width="80" height="80" as="geometry" />
        </mxCell>
        <mxCell id="WKeKa3uL8pxt96cC4who-22" value="build gower matrix&amp;nbsp;&lt;div&gt;for comparision&lt;/div&gt;" style="rounded=0;whiteSpace=wrap;html=1;" vertex="1" parent="WIyWlLk6GJQsqaUBKTNV-1">
          <mxGeometry x="170" y="260" width="120" height="60" as="geometry" />
        </mxCell>
      </root>
    </mxGraphModel>
  </diagram>
</mxfile>
